<svg xmlns="http://www.w3.org/2000/svg" width="26" height="26" fill="none" viewBox="0 0 26 26"><path fill="#000" d="M4.67999 2.08C3.25024 2.08 2.07999 3.25025 2.07999 4.68V21.32C2.07999 22.7498 3.25024 23.92 4.67999 23.92H21.32C22.7497 23.92 23.92 22.7498 23.92 21.32V4.68C23.92 3.25025 22.7497 2.08 21.32 2.08H4.67999ZM4.67999 3.12H21.32C22.1876 3.12 22.88 3.81239 22.88 4.68V21.32C22.88 22.1876 22.1876 22.88 21.32 22.88H4.67999C3.81237 22.88 3.11999 22.1876 3.11999 21.32V4.68C3.11999 3.81239 3.81237 3.12 4.67999 3.12ZM7.27999 5.7261C6.71047 5.7261 6.19798 5.89632 5.8185 6.21563C5.43902 6.53493 5.20608 7.01195 5.20608 7.52274C5.20608 8.49367 6.04825 9.2506 7.11952 9.32547L7.12155 9.32649C7.17259 9.34388 7.22606 9.35314 7.27999 9.35391C8.46195 9.35391 9.35389 8.52596 9.35389 7.52274C9.3538 7.51359 9.35346 7.50444 9.35288 7.49531C9.29997 6.50719 8.41902 5.7261 7.27999 5.7261ZM7.27999 6.75391C8.00395 6.75391 8.28981 7.07722 8.321 7.53594C8.31468 7.98119 8.03923 8.3261 7.27999 8.3261C6.55958 8.3261 6.23389 7.95716 6.23389 7.52274C6.23389 7.30552 6.31315 7.14184 6.47967 7.00172C6.64619 6.8616 6.9135 6.75391 7.27999 6.75391ZM5.71999 9.88C5.58208 9.88002 5.44982 9.93481 5.35231 10.0323C5.25479 10.1298 5.2 10.2621 5.19999 10.4V20.28C5.2 20.4179 5.25479 20.5502 5.35231 20.6477C5.44982 20.7452 5.58208 20.8 5.71999 20.8H8.83999C8.97789 20.8 9.11015 20.7452 9.20767 20.6477C9.30518 20.5502 9.35997 20.4179 9.35999 20.28V17.2301V10.4C9.35997 10.2621 9.30518 10.1298 9.20767 10.0323C9.11015 9.93481 8.97789 9.88002 8.83999 9.88H5.71999ZM10.4 9.88C10.2621 9.88002 10.1298 9.93481 10.0323 10.0323C9.93479 10.1298 9.88 10.2621 9.87999 10.4V20.28C9.88 20.4179 9.93479 20.5502 10.0323 20.6477C10.1298 20.7452 10.2621 20.8 10.4 20.8H13.52C13.6579 20.8 13.7902 20.7452 13.8877 20.6477C13.9852 20.5502 14.04 20.4179 14.04 20.28V15.08C14.04 14.6486 14.1577 14.2194 14.365 13.9384C14.5723 13.6575 14.8337 13.4888 15.3308 13.4977C15.8434 13.5065 16.1148 13.6821 16.3201 13.9577C16.5253 14.2334 16.64 14.6467 16.64 15.08V20.28C16.64 20.4179 16.6948 20.5502 16.7923 20.6477C16.8898 20.7452 17.0221 20.8 17.16 20.8H20.28C20.4179 20.8 20.5501 20.7452 20.6477 20.6477C20.7452 20.5502 20.8 20.4179 20.8 20.28V14.6961C20.8 13.1561 20.3438 11.9363 19.5619 11.1109C18.78 10.2856 17.6926 9.88 16.5425 9.88C15.4494 9.88 14.6176 10.2465 14.04 10.6204V10.4C14.04 10.2621 13.9852 10.1298 13.8877 10.0323C13.7902 9.93481 13.6579 9.88002 13.52 9.88H10.4ZM6.23999 10.92H8.31999V17.2301V19.76H6.23999V10.92ZM10.92 10.92H13V11.7315C13 11.8405 13.0343 11.9468 13.098 12.0353C13.1618 12.1237 13.2517 12.19 13.3551 12.2245C13.4585 12.2591 13.5702 12.2603 13.6743 12.228C13.7784 12.1956 13.8698 12.1314 13.9354 12.0443C13.9354 12.0443 14.752 10.92 16.5425 10.92C17.4542 10.92 18.2361 11.2229 18.8073 11.8259C19.3786 12.4289 19.76 13.3579 19.76 14.6961V19.76H17.68V15.08C17.68 14.4733 17.5346 13.8461 17.1549 13.3362C16.7752 12.8263 16.1365 12.4712 15.3491 12.4577C14.5577 12.4436 13.9087 12.806 13.5281 13.322C13.1475 13.8379 13 14.4714 13 15.08V19.76H10.92V10.92Z"/></svg>